<?xml version="1.0" encoding="utf-8"?>
<!-- Generator: Adobe Illustrator 14.0.0, SVG Export Plug-In . SVG Version: 6.00 Build 43363)  -->
<!DOCTYPE svg PUBLIC "-//W3C//DTD SVG 1.1//EN" "http://www.w3.org/Graphics/SVG/1.1/DTD/svg11.dtd">
<svg version="1.1" id="Layer_1" xmlns="http://www.w3.org/2000/svg" xmlns:xlink="http://www.w3.org/1999/xlink" x="0px" y="0px"
	 width="400px" height="200px" viewBox="0 0 400 200" enable-background="new 0 0 400 200" xml:space="preserve">
<polygon points="318.888,53.931 338.247,25.06 357.607,53.931 "/>
<path fill="#EF812B" d="M61.085,60.616v28.62c0,3.835,1.595,4.835,4.253,4.835c2.656,0,4.251-1,4.251-4.835v-28.62h14.122v26.009
	c0,11.113-6.529,14.448-18.373,14.448c-11.846,0-18.375-3.335-18.375-14.448V60.616H61.085z"/>
<path fill="#EF812B" d="M128.992,60.616h31.522v8.448h-17.66v8.195h16.543v8.688h-16.543v14.349h-13.862V60.616z"/>
<path fill="#EF812B" d="M223.89,59.84c14.158,0,19.002,5.778,19.002,20.615c0,14.837-4.844,20.618-19.002,20.618
	s-19.002-5.781-19.002-20.618C204.888,65.618,209.732,59.84,223.89,59.84z M223.89,94.071c4.247,0,4.695-2.889,4.695-13.616
	c0-10.724-0.448-13.615-4.695-13.615c-4.249,0-4.694,2.892-4.694,13.615C219.196,91.182,219.642,94.071,223.89,94.071z"/>
<path fill="#EF812B" d="M247.718,60.616h15.5l8.943,24.452h0.149V60.616h12.967v39.679h-15.202l-9.242-24.507h-0.149v24.507h-12.966
	V60.616z"/>
<path fill="#EF812B" d="M300.132,69.396H289.7v-8.78h34.726v8.78h-10.432v30.898h-13.862V69.396z"/>
<path d="M291.883,106.951h18.084l13.445,39.679h-15.301l-1.468-6.946h-11.437l-1.469,6.946h-15.301L291.883,106.951z
	 M301.003,115.066h-0.156l-3.94,16.837h8.038L301.003,115.066z"/>
<path d="M70.074,106.951h12.981l5.641,27.453h0.156l3.862-27.453h13.912l-9.43,39.679H81.434l-4.792-26.674h-0.154l-4.792,26.674
	H55.932l-9.428-39.679h13.91l4.328,27.453h0.154L70.074,106.951z"/>
<path d="M157.25,119.01c0-4.5-1.158-5.835-3.941-5.835c-4.403,0-4.867,2.892-4.867,13.615c0,10.727,0.464,13.615,4.867,13.615
	c3.557,0,4.328-2.222,4.328-9.724h13.909v2.943c0,11.115-9.041,13.783-18.237,13.783c-16.149,0-19.704-5.835-19.704-20.618
	c0-15.17,4.79-20.615,19.704-20.615c12.984,0,17.853,4.889,17.853,12.559v2.5H157.25V119.01z"/>
<path d="M179.279,106.951h14.374v14.561h8.81v-14.561h14.373v39.679h-14.373v-16.337h-8.81v16.337h-14.374V106.951z"/>
<path d="M225.65,106.951h14.373v39.679H225.65V106.951z"/>
<path d="M256.101,115.731h-10.819v-8.781h36.008v8.781h-10.816v30.898h-14.373V115.731z"/>
<g>
	<g>
		<path d="M326.766,161.312c12.021,0,18.646-3.421,18.646-14.823V51.558h-14.33v97.61c0,3.935-1.62,4.961-4.316,4.961H130.689
			c-2.697,0-4.316-1.027-4.316-4.961v-42.217h-14.331v39.539c0,11.402,6.627,14.823,18.647,14.823H326.766z"/>
	</g>
</g>
<g>
	<path fill="#EF812B" d="M179.445,85.91v14.321h-13.862V60.476h18.425c13.005,0,17.285,3.129,17.285,10.857
		c0,4.586-2.004,8.45-6.559,9.718c4.12,1.547,6.615,3.004,6.615,11.009c0,5.19-0.165,6.957,1.351,6.957v1.215h-12.952
		c-0.321-0.882-0.649-3.423-0.649-6.957c0-5.188-0.869-7.364-6.824-7.364H179.445z M179.445,77.187h3.966
		c3.955,0,6.07-0.991,6.07-3.754c0-2.816-2.17-4.143-5.149-4.143h-4.887V77.187z"/>
</g>
<g>
	<path fill="#EF812B" d="M109.345,60.616h-20.79v39.679h13.86V85.946h4.844c11.253-0.767,17.437-4.991,17.437-13.104
		C124.696,65.896,119.927,60.616,109.345,60.616z M106.37,77.187h-3.966V69.29h4.887c2.979,0,5.149,1.326,5.149,4.143
		C112.44,76.195,110.325,77.187,106.37,77.187z"/>
</g>
</svg>
